#N canvas 393 22 1155 756 10;
#X obj 53 239 pix_film;
#X obj 53 208 gemhead;
#X obj 53 373 pix_texture;
#X obj 53 404 alpha;
#X obj 53 180 tgl 15 0 empty empty empty 17 7 0 10 -262144 -1 -1 1
1;
#X obj 75 273 unpack f f f;
#X floatatom 75 300 5 0 0 0 - - -;
#X floatatom 109 300 5 0 0 0 - - -;
#X floatatom 144 300 5 0 0 0 - - -;
#X obj 8 148 inlet;
#X obj 53 148 inlet;
#X obj 53 434 outlet;
#X text 111 436 outlet 1: video stream;
#X text 10 111 (from left) inlet 1: opening a file inlet 2: toggle
video display inlet 3: frame index;
#X text 73 344 outlet 2: total frames in loaded video file;
#X msg 685 335 0;
#X obj 685 444 counter 0 1228;
#X msg 745 393 0;
#X obj 685 397 metro;
#X floatatom 776 480 5 0 0 0 - - -;
#X obj 685 369 tgl 15 0 empty empty empty 17 7 0 10 -262144 -1 -1 0
1;
#X msg 685 420 inc;
#X floatatom 527 550 5 0 0 0 - - -;
#X msg 436 402 inc;
#X msg 421 267 0;
#X obj 436 516 counter;
#X floatatom 436 459 5 0 0 0 - - -;
#X obj 436 482 change;
#X obj 436 380 metro;
#X obj 436 431 counter 0 10;
#X msg 457 266 1;
#X obj 547 410 select 10;
#X obj 545 375 t f f;
#X obj 513 266 f;
#X obj 498 287 *;
#X msg 556 285 0;
#X floatatom 509 312 5 0 0 0 - - -;
#X floatatom 788 446 5 0 0 0 - - -;
#X text 751 225 default framerate 30 fps;
#X obj 712 199 loadbang;
#X obj 685 481 s frameIndex;
#X obj 483 157 t b f b b b b;
#X msg 721 359 1;
#X obj 723 295 s reset;
#X obj 723 275 delay 10000;
#X msg 790 246 10000;
#X msg 753 248 1000;
#X obj 723 245 bng 15 250 50 0 empty empty empty 17 7 0 10 -262144
-1 -1;
#X obj 608 149 spigot;
#X obj 648 125 tgl 15 0 empty empty empty 17 7 0 10 -262144 -1 -1 0
1;
#X obj 725 325 r reset;
#X msg 712 227 41.7;
#X obj 772 358 r create;
#X obj 476 93 inlet;
#X text 570 235 was 127;
#X floatatom 417 144 5 0 0 0 - - -;
#X obj 20 274 bng 15 250 50 0 empty empty empty 17 7 0 10 -262144 -1
-1;
#X obj 75 324 s \$0-numberOfFrames;
#X obj 766 416 r \$0-numberOfFrames;
#X obj 528 208 r \$0-numberOfFrames;
#X obj 545 345 r sliceLength;
#X floatatom 577 255 5 0 0 0 - - -;
#X obj 528 237 / 68;
#X connect 0 0 2 0;
#X connect 0 1 5 0;
#X connect 1 0 0 0;
#X connect 2 0 3 0;
#X connect 3 0 11 0;
#X connect 4 0 1 0;
#X connect 5 0 6 0;
#X connect 5 1 7 0;
#X connect 5 2 8 0;
#X connect 6 0 57 0;
#X connect 9 0 0 0;
#X connect 10 0 4 0;
#X connect 10 0 56 0;
#X connect 15 0 20 0;
#X connect 16 0 19 0;
#X connect 16 0 40 0;
#X connect 17 0 16 3;
#X connect 18 0 21 0;
#X connect 20 0 18 0;
#X connect 20 0 17 0;
#X connect 21 0 16 0;
#X connect 23 0 29 0;
#X connect 24 0 28 0;
#X connect 25 0 22 0;
#X connect 25 0 0 1;
#X connect 26 0 27 0;
#X connect 27 0 25 0;
#X connect 28 0 23 0;
#X connect 29 0 26 0;
#X connect 29 0 31 0;
#X connect 30 0 28 0;
#X connect 31 0 24 0;
#X connect 32 0 29 4;
#X connect 32 1 31 1;
#X connect 33 0 34 1;
#X connect 34 0 25 3;
#X connect 34 0 36 0;
#X connect 35 0 29 3;
#X connect 39 0 51 0;
#X connect 41 0 30 0;
#X connect 41 1 34 0;
#X connect 41 2 33 0;
#X connect 41 3 35 0;
#X connect 41 4 15 0;
#X connect 41 5 48 0;
#X connect 42 0 20 0;
#X connect 44 0 43 0;
#X connect 45 0 44 1;
#X connect 46 0 44 1;
#X connect 47 0 44 0;
#X connect 48 0 44 0;
#X connect 49 0 48 1;
#X connect 50 0 42 0;
#X connect 51 0 28 1;
#X connect 51 0 18 1;
#X connect 52 0 17 0;
#X connect 53 0 41 0;
#X connect 53 0 55 0;
#X connect 56 0 6 0;
#X connect 58 0 16 4;
#X connect 58 0 37 0;
#X connect 59 0 62 0;
#X connect 60 0 32 0;
#X connect 62 0 33 1;
#X connect 62 0 61 0;
